<svg width="152" height="30" viewBox="0 0 152 30" fill="none" xmlns="http://www.w3.org/2000/svg">
<g clip-path="url(#clip0_6_11)">
<path d="M49.0048 14.88C49.0048 15.8656 48.8448 16.7808 48.5248 17.6256C48.2048 18.4576 47.7568 19.1872 47.1808 19.8144C46.6048 20.4416 45.92 20.928 45.1264 21.2736C44.3328 21.6192 43.4688 21.792 42.5344 21.792C41.5872 21.792 40.7168 21.6192 39.9232 21.2736C39.1424 20.928 38.464 20.4416 37.888 19.8144C37.312 19.1872 36.864 18.4576 36.544 17.6256C36.224 16.7808 36.064 15.8656 36.064 14.88C36.064 13.8816 36.224 12.9664 36.544 12.1344C36.864 11.2896 37.312 10.56 37.888 9.9456C38.464 9.3184 39.1424 8.832 39.9232 8.4864C40.7168 8.1408 41.5872 7.968 42.5344 7.968C43.4688 7.968 44.3328 8.1408 45.1264 8.4864C45.92 8.832 46.6048 9.3184 47.1808 9.9456C47.7568 10.56 48.2048 11.2896 48.5248 12.1344C48.8448 12.9664 49.0048 13.8816 49.0048 14.88ZM47.3536 14.88C47.3536 13.8304 47.1424 12.9024 46.72 12.096C46.3104 11.2896 45.7472 10.656 45.0304 10.1952C44.3136 9.7344 43.4816 9.504 42.5344 9.504C41.5872 9.504 40.7488 9.7344 40.0192 10.1952C39.3024 10.656 38.7392 11.2896 38.3296 12.096C37.92 12.9024 37.7152 13.8304 37.7152 14.88C37.7152 15.9168 37.92 16.8448 38.3296 17.664C38.7392 18.4704 39.3024 19.104 40.0192 19.5648C40.7488 20.0256 41.5872 20.256 42.5344 20.256C43.4816 20.256 44.3136 20.0256 45.0304 19.5648C45.7472 19.104 46.3104 18.4704 46.72 17.664C47.1424 16.8448 47.3536 15.9168 47.3536 14.88ZM55.2577 11.424C56.1281 11.424 56.8129 11.6032 57.3121 11.9616C57.8113 12.32 58.1633 12.8 58.3681 13.4016C58.5857 14.0032 58.6945 14.6752 58.6945 15.4176V20.8128C58.6945 21.0304 58.6177 21.216 58.4641 21.3696C58.3233 21.5232 58.1441 21.6 57.9265 21.6C57.7089 21.6 57.5233 21.5232 57.3697 21.3696C57.2289 21.216 57.1585 21.0304 57.1585 20.8128V15.456C57.1585 14.9696 57.0817 14.5344 56.9281 14.1504C56.7873 13.7536 56.5441 13.44 56.1985 13.2096C55.8657 12.9664 55.4049 12.8448 54.8161 12.8448C54.2785 12.8448 53.7857 12.9664 53.3377 13.2096C52.8897 13.44 52.5313 13.7536 52.2625 14.1504C51.9937 14.5344 51.8593 14.9696 51.8593 15.456V20.8128C51.8593 21.0304 51.7825 21.216 51.6289 21.3696C51.4881 21.5232 51.3089 21.6 51.0913 21.6C50.8737 21.6 50.6881 21.5232 50.5345 21.3696C50.3937 21.216 50.3233 21.0304 50.3233 20.8128V12.4416C50.3233 12.224 50.3937 12.0448 50.5345 11.904C50.6881 11.7504 50.8737 11.6736 51.0913 11.6736C51.3217 11.6736 51.5073 11.7504 51.6481 11.904C51.7889 12.0448 51.8593 12.224 51.8593 12.4416V13.8048L51.4753 14.2272C51.5393 13.8944 51.6865 13.5616 51.9169 13.2288C52.1473 12.8832 52.4353 12.576 52.7809 12.3072C53.1265 12.0384 53.5105 11.8272 53.9329 11.6736C54.3553 11.5072 54.7969 11.424 55.2577 11.424ZM67.9125 11.52C68.1301 11.52 68.3093 11.5968 68.4501 11.7504C68.6037 11.8912 68.6805 12.0704 68.6805 12.288V20.6592C68.6805 21.7344 68.4693 22.624 68.0469 23.328C67.6245 24.0448 67.0549 24.576 66.3381 24.9216C65.6341 25.2672 64.8341 25.44 63.9381 25.44C63.4389 25.44 62.9589 25.3888 62.4981 25.2864C62.0373 25.184 61.6597 25.0496 61.3653 24.8832C61.1221 24.768 60.9493 24.6208 60.8469 24.4416C60.7573 24.2752 60.7445 24.096 60.8085 23.904C60.8981 23.6736 61.0261 23.5136 61.1925 23.424C61.3717 23.3344 61.5573 23.3344 61.7493 23.424C61.9541 23.5136 62.2485 23.6352 62.6325 23.7888C63.0293 23.9552 63.4709 24.0384 63.9573 24.0384C64.6229 24.0384 65.1925 23.9104 65.6661 23.6544C66.1397 23.3984 66.5045 23.0208 66.7605 22.5216C67.0165 22.0352 67.1445 21.4272 67.1445 20.6976V19.3344L67.3749 19.8144C67.1701 20.2112 66.8949 20.5568 66.5493 20.8512C66.2037 21.1456 65.8069 21.376 65.3589 21.5424C64.9109 21.7088 64.4181 21.792 63.8805 21.792C63.1509 21.792 62.5301 21.6384 62.0181 21.3312C61.5189 21.0112 61.1349 20.576 60.8661 20.0256C60.6101 19.4624 60.4821 18.816 60.4821 18.0864V12.288C60.4821 12.0704 60.5525 11.8912 60.6933 11.7504C60.8469 11.5968 61.0325 11.52 61.2501 11.52C61.4805 11.52 61.6661 11.5968 61.8069 11.7504C61.9477 11.8912 62.0181 12.0704 62.0181 12.288V17.7408C62.0181 18.6112 62.2101 19.2704 62.5941 19.7184C62.9781 20.1536 63.5733 20.3712 64.3797 20.3712C64.8917 20.3712 65.3525 20.256 65.7621 20.0256C66.1845 19.7952 66.5173 19.4816 66.7605 19.0848C67.0165 18.6752 67.1445 18.2272 67.1445 17.7408V12.288C67.1445 12.0704 67.2149 11.8912 67.3557 11.7504C67.4965 11.5968 67.6821 11.52 67.9125 11.52ZM70.4699 11.5584C70.7131 11.5584 70.9179 11.6672 71.0843 11.8848L77.7659 20.4096C77.8683 20.5504 77.9195 20.704 77.9195 20.8704C77.9195 21.088 77.8427 21.2736 77.6891 21.4272C77.5355 21.5808 77.3563 21.6576 77.1515 21.6576C76.9083 21.6576 76.6971 21.5424 76.5179 21.312L69.8363 12.8064C69.7339 12.6656 69.6827 12.512 69.6827 12.3456C69.6827 12.1152 69.7595 11.9296 69.9131 11.7888C70.0795 11.6352 70.2651 11.5584 70.4699 11.5584ZM70.4699 21.6384C70.3035 21.6384 70.1371 21.5744 69.9707 21.4464C69.8043 21.3184 69.7211 21.152 69.7211 20.9472C69.7211 20.7808 69.7851 20.6208 69.9131 20.4672L73.0619 16.4928L73.8683 17.76L71.0843 21.3312C70.9307 21.536 70.7259 21.6384 70.4699 21.6384ZM77.1515 11.5584C77.3691 11.5584 77.5419 11.6288 77.6699 11.7696C77.8107 11.9104 77.8811 12.0704 77.8811 12.2496C77.8811 12.3264 77.8619 12.4096 77.8235 12.4992C77.7979 12.5888 77.7531 12.672 77.6891 12.7488L74.5595 16.7616L73.7531 15.5904L76.5179 11.904C76.6971 11.6736 76.9083 11.5584 77.1515 11.5584ZM87.4376 21.792C86.4904 21.792 85.6584 21.6512 84.9416 21.3696C84.2248 21.088 83.5336 20.64 82.868 20.0256C82.7784 19.936 82.7016 19.84 82.6376 19.7376C82.5864 19.6224 82.5608 19.5008 82.5608 19.3728C82.5608 19.168 82.6312 18.9888 82.772 18.8352C82.9256 18.6688 83.1112 18.5856 83.3288 18.5856C83.508 18.5856 83.668 18.656 83.8088 18.7968C84.308 19.2832 84.8456 19.6544 85.4216 19.9104C86.0104 20.1664 86.6696 20.2944 87.3992 20.2944C87.9624 20.2944 88.468 20.2048 88.916 20.0256C89.3768 19.8464 89.7416 19.5968 90.0104 19.2768C90.2792 18.9568 90.4136 18.5856 90.4136 18.1632C90.4008 17.6512 90.2472 17.2288 89.9528 16.896C89.6712 16.5632 89.2744 16.288 88.7624 16.0704C88.2632 15.84 87.6808 15.648 87.0152 15.4944C86.4264 15.3536 85.8824 15.1808 85.3832 14.976C84.8968 14.7712 84.4744 14.5216 84.116 14.2272C83.7576 13.92 83.476 13.5552 83.2712 13.1328C83.0792 12.6976 82.9832 12.192 82.9832 11.616C82.9832 10.8864 83.1752 10.2464 83.5592 9.696C83.9432 9.1456 84.4744 8.7232 85.1528 8.4288C85.8312 8.1216 86.612 7.968 87.4952 7.968C88.276 7.968 89.012 8.096 89.7032 8.352C90.4072 8.608 90.9704 8.96 91.3928 9.408C91.6488 9.6512 91.7768 9.888 91.7768 10.1184C91.7768 10.3104 91.6936 10.4896 91.5272 10.656C91.3736 10.8096 91.1944 10.8864 90.9896 10.8864C90.8488 10.8864 90.7208 10.8352 90.6056 10.7328C90.388 10.4896 90.1128 10.272 89.78 10.08C89.4472 9.888 89.0824 9.7344 88.6856 9.6192C88.2888 9.504 87.892 9.4464 87.4952 9.4464C86.9064 9.4464 86.388 9.536 85.94 9.7152C85.492 9.8816 85.14 10.1248 84.884 10.4448C84.6408 10.752 84.5192 11.1232 84.5192 11.5584C84.5192 12.0448 84.66 12.448 84.9416 12.768C85.2232 13.0752 85.6008 13.3312 86.0744 13.536C86.548 13.728 87.0728 13.9008 87.6488 14.0544C88.276 14.208 88.852 14.3872 89.3768 14.592C89.9144 14.784 90.3752 15.0272 90.7592 15.3216C91.1432 15.616 91.4376 15.9936 91.6424 16.4544C91.86 16.9024 91.9688 17.4592 91.9688 18.1248C91.9688 18.8288 91.7704 19.456 91.3736 20.0064C90.9768 20.5568 90.4328 20.992 89.7416 21.312C89.0632 21.6192 88.2952 21.7792 87.4376 21.792ZM100.747 11.52C100.965 11.52 101.144 11.5968 101.285 11.7504C101.438 11.8912 101.515 12.0704 101.515 12.288V20.6592C101.515 21.7344 101.304 22.624 100.882 23.328C100.459 24.0448 99.8896 24.576 99.1728 24.9216C98.4688 25.2672 97.6688 25.44 96.7728 25.44C96.2736 25.44 95.7936 25.3888 95.3328 25.2864C94.872 25.184 94.4944 25.0496 94.2 24.8832C93.9568 24.768 93.784 24.6208 93.6816 24.4416C93.592 24.2752 93.5792 24.096 93.6432 23.904C93.7328 23.6736 93.8608 23.5136 94.0272 23.424C94.2064 23.3344 94.392 23.3344 94.584 23.424C94.7888 23.5136 95.0832 23.6352 95.4672 23.7888C95.864 23.9552 96.3056 24.0384 96.792 24.0384C97.4576 24.0384 98.0272 23.9104 98.5008 23.6544C98.9744 23.3984 99.3392 23.0208 99.5952 22.5216C99.8512 22.0352 99.9792 21.4272 99.9792 20.6976V19.3344L100.21 19.8144C100.005 20.2112 99.7296 20.5568 99.384 20.8512C99.0384 21.1456 98.6416 21.376 98.1936 21.5424C97.7456 21.7088 97.2528 21.792 96.7152 21.792C95.9856 21.792 95.3648 21.6384 94.8528 21.3312C94.3536 21.0112 93.9696 20.576 93.7008 20.0256C93.4448 19.4624 93.3168 18.816 93.3168 18.0864V12.288C93.3168 12.0704 93.3872 11.8912 93.528 11.7504C93.6816 11.5968 93.8672 11.52 94.0848 11.52C94.3152 11.52 94.5008 11.5968 94.6416 11.7504C94.7824 11.8912 94.8528 12.0704 94.8528 12.288V17.7408C94.8528 18.6112 95.0448 19.2704 95.4288 19.7184C95.8128 20.1536 96.408 20.3712 97.2144 20.3712C97.7264 20.3712 98.1872 20.256 98.5968 20.0256C99.0192 19.7952 99.352 19.4816 99.5952 19.0848C99.8512 18.6752 99.9792 18.2272 99.9792 17.7408V12.288C99.9792 12.0704 100.05 11.8912 100.19 11.7504C100.331 11.5968 100.517 11.52 100.747 11.52ZM102.657 20.0256C102.542 19.8592 102.49 19.6864 102.503 19.5072C102.516 19.3152 102.625 19.1488 102.83 19.008C102.958 18.9184 103.105 18.88 103.271 18.8928C103.45 18.9056 103.61 18.9888 103.751 19.1424C104.11 19.5648 104.519 19.904 104.98 20.16C105.441 20.4032 106.004 20.5248 106.67 20.5248C106.977 20.512 107.284 20.4608 107.591 20.3712C107.898 20.2816 108.154 20.128 108.359 19.9104C108.577 19.68 108.686 19.3792 108.686 19.008C108.686 18.6496 108.577 18.368 108.359 18.1632C108.142 17.9456 107.86 17.7728 107.514 17.6448C107.169 17.504 106.791 17.3824 106.382 17.28C105.959 17.1648 105.543 17.0368 105.134 16.896C104.724 16.7424 104.353 16.5568 104.02 16.3392C103.7 16.1088 103.438 15.8272 103.233 15.4944C103.041 15.1488 102.945 14.7328 102.945 14.2464C102.945 13.6704 103.098 13.1712 103.406 12.7488C103.726 12.3264 104.148 12 104.673 11.7696C105.21 11.5392 105.793 11.424 106.42 11.424C106.778 11.424 107.15 11.4688 107.534 11.5584C107.93 11.6352 108.314 11.776 108.686 11.9808C109.057 12.1728 109.383 12.4416 109.665 12.7872C109.78 12.9152 109.844 13.0752 109.857 13.2672C109.87 13.4592 109.786 13.632 109.607 13.7856C109.466 13.888 109.306 13.9328 109.127 13.92C108.961 13.9072 108.82 13.8432 108.705 13.728C108.436 13.408 108.097 13.1648 107.687 12.9984C107.29 12.8192 106.849 12.7296 106.362 12.7296C106.055 12.7296 105.754 12.7744 105.46 12.864C105.166 12.9536 104.916 13.1072 104.711 13.3248C104.519 13.5296 104.423 13.8176 104.423 14.1888C104.436 14.5344 104.551 14.816 104.769 15.0336C104.986 15.2512 105.281 15.4304 105.652 15.5712C106.023 15.6992 106.433 15.8272 106.881 15.9552C107.29 16.0576 107.681 16.1792 108.052 16.32C108.436 16.448 108.782 16.6208 109.089 16.8384C109.396 17.056 109.639 17.3376 109.818 17.6832C109.998 18.016 110.087 18.4384 110.087 18.9504C110.087 19.5392 109.921 20.0512 109.588 20.4864C109.255 20.9088 108.814 21.2352 108.263 21.4656C107.726 21.6832 107.143 21.792 106.516 21.792C105.812 21.792 105.114 21.6576 104.423 21.3888C103.745 21.12 103.156 20.6656 102.657 20.0256ZM110.963 11.7312H115.475C115.68 11.7312 115.846 11.8016 115.974 11.9424C116.115 12.0832 116.186 12.2496 116.186 12.4416C116.186 12.6464 116.115 12.8192 115.974 12.96C115.846 13.088 115.68 13.152 115.475 13.152H110.963C110.771 13.152 110.605 13.0816 110.464 12.9408C110.323 12.8 110.253 12.6272 110.253 12.4224C110.253 12.2304 110.323 12.0704 110.464 11.9424C110.605 11.8016 110.771 11.7312 110.963 11.7312ZM112.979 9.12C113.197 9.12 113.376 9.1968 113.517 9.3504C113.658 9.4912 113.728 9.6704 113.728 9.888V19.1616C113.728 19.4688 113.773 19.6992 113.862 19.8528C113.952 20.0064 114.067 20.1152 114.208 20.1792C114.362 20.2304 114.509 20.256 114.65 20.256C114.778 20.256 114.886 20.2368 114.976 20.1984C115.078 20.1472 115.194 20.1216 115.322 20.1216C115.45 20.1216 115.565 20.1856 115.667 20.3136C115.782 20.4288 115.84 20.5824 115.84 20.7744C115.84 21.0048 115.706 21.2032 115.437 21.3696C115.168 21.5232 114.867 21.6 114.534 21.6C114.355 21.6 114.131 21.5872 113.862 21.5616C113.606 21.536 113.35 21.4528 113.094 21.312C112.838 21.1712 112.621 20.9408 112.442 20.6208C112.275 20.288 112.192 19.8272 112.192 19.2384V9.888C112.192 9.6704 112.269 9.4912 112.422 9.3504C112.576 9.1968 112.762 9.12 112.979 9.12ZM121.857 21.792C120.833 21.792 119.937 21.5744 119.169 21.1392C118.401 20.704 117.799 20.1088 117.364 19.3536C116.942 18.5856 116.73 17.7024 116.73 16.704C116.73 15.5904 116.948 14.6432 117.383 13.8624C117.831 13.0688 118.407 12.4672 119.111 12.0576C119.828 11.6352 120.583 11.424 121.377 11.424C121.966 11.424 122.535 11.5328 123.086 11.7504C123.636 11.968 124.122 12.288 124.545 12.7104C124.967 13.12 125.306 13.6192 125.562 14.208C125.818 14.784 125.953 15.4304 125.966 16.1472C125.966 16.352 125.889 16.5248 125.735 16.6656C125.582 16.8064 125.402 16.8768 125.198 16.8768H117.614L117.268 15.552H124.66L124.353 15.8208V15.3984C124.302 14.8736 124.122 14.4256 123.815 14.0544C123.521 13.6704 123.156 13.376 122.721 13.1712C122.298 12.9664 121.85 12.864 121.377 12.864C120.993 12.864 120.609 12.9344 120.225 13.0752C119.854 13.2032 119.514 13.4208 119.207 13.728C118.913 14.0224 118.67 14.4064 118.478 14.88C118.298 15.3536 118.209 15.9232 118.209 16.5888C118.209 17.3312 118.356 17.984 118.65 18.5472C118.958 19.1104 119.38 19.5584 119.918 19.8912C120.455 20.2112 121.082 20.3712 121.799 20.3712C122.247 20.3712 122.638 20.3136 122.97 20.1984C123.303 20.0832 123.591 19.9424 123.834 19.776C124.078 19.5968 124.282 19.4176 124.449 19.2384C124.615 19.1232 124.775 19.0656 124.929 19.0656C125.121 19.0656 125.274 19.1296 125.39 19.2576C125.518 19.3856 125.582 19.5392 125.582 19.7184C125.582 19.936 125.479 20.128 125.274 20.2944C124.916 20.6912 124.43 21.0432 123.815 21.3504C123.201 21.6448 122.548 21.792 121.857 21.792ZM132.057 11.52C132.927 11.52 133.631 11.744 134.169 12.192C134.719 12.6272 135.084 13.248 135.263 14.0544H134.975L135.11 13.7088C135.263 13.3504 135.526 13.0048 135.897 12.672C136.268 12.3392 136.697 12.064 137.183 11.8464C137.67 11.6288 138.175 11.52 138.7 11.52C139.545 11.52 140.21 11.7056 140.697 12.0768C141.183 12.4352 141.529 12.9216 141.734 13.536C141.951 14.1376 142.06 14.816 142.06 15.5712V20.8128C142.06 21.0304 141.983 21.216 141.83 21.3696C141.689 21.5232 141.51 21.6 141.292 21.6C141.062 21.6 140.876 21.5232 140.735 21.3696C140.594 21.216 140.524 21.0304 140.524 20.8128V15.6096C140.524 15.1104 140.447 14.6624 140.294 14.2656C140.153 13.856 139.916 13.536 139.583 13.3056C139.263 13.0624 138.822 12.9408 138.258 12.9408C137.734 12.9408 137.254 13.0624 136.818 13.3056C136.383 13.536 136.038 13.856 135.782 14.2656C135.526 14.6624 135.398 15.1104 135.398 15.6096V20.8128C135.398 21.0304 135.327 21.216 135.186 21.3696C135.046 21.5232 134.86 21.6 134.63 21.6C134.412 21.6 134.226 21.5232 134.073 21.3696C133.932 21.216 133.862 21.0304 133.862 20.8128V15.552C133.862 15.0656 133.791 14.6304 133.65 14.2464C133.522 13.8496 133.298 13.536 132.978 13.3056C132.658 13.0624 132.217 12.9408 131.654 12.9408C131.142 12.9408 130.674 13.0624 130.252 13.3056C129.83 13.536 129.49 13.8496 129.234 14.2464C128.978 14.6304 128.85 15.0656 128.85 15.552V20.8128C128.85 21.0304 128.774 21.216 128.62 21.3696C128.479 21.5232 128.3 21.6 128.082 21.6C127.865 21.6 127.679 21.5232 127.526 21.3696C127.385 21.216 127.314 21.0304 127.314 20.8128V12.4416C127.314 12.224 127.385 12.0448 127.526 11.904C127.679 11.7504 127.865 11.6736 128.082 11.6736C128.313 11.6736 128.498 11.7504 128.639 11.904C128.78 12.0448 128.85 12.224 128.85 12.4416V13.9008L128.428 14.3616C128.479 14.0288 128.607 13.696 128.812 13.3632C129.03 13.0304 129.305 12.7232 129.638 12.4416C129.97 12.16 130.342 11.936 130.751 11.7696C131.161 11.6032 131.596 11.52 132.057 11.52ZM143.386 20.0256C143.27 19.8592 143.219 19.6864 143.232 19.5072C143.245 19.3152 143.354 19.1488 143.558 19.008C143.686 18.9184 143.834 18.88 144 18.8928C144.179 18.9056 144.339 18.9888 144.48 19.1424C144.838 19.5648 145.248 19.904 145.709 20.16C146.17 20.4032 146.733 20.5248 147.398 20.5248C147.706 20.512 148.013 20.4608 148.32 20.3712C148.627 20.2816 148.883 20.128 149.088 19.9104C149.306 19.68 149.414 19.3792 149.414 19.008C149.414 18.6496 149.306 18.368 149.088 18.1632C148.87 17.9456 148.589 17.7728 148.243 17.6448C147.898 17.504 147.52 17.3824 147.11 17.28C146.688 17.1648 146.272 17.0368 145.862 16.896C145.453 16.7424 145.082 16.5568 144.749 16.3392C144.429 16.1088 144.166 15.8272 143.962 15.4944C143.77 15.1488 143.674 14.7328 143.674 14.2464C143.674 13.6704 143.827 13.1712 144.134 12.7488C144.454 12.3264 144.877 12 145.402 11.7696C145.939 11.5392 146.522 11.424 147.149 11.424C147.507 11.424 147.878 11.4688 148.262 11.5584C148.659 11.6352 149.043 11.776 149.414 11.9808C149.786 12.1728 150.112 12.4416 150.394 12.7872C150.509 12.9152 150.573 13.0752 150.586 13.2672C150.598 13.4592 150.515 13.632 150.336 13.7856C150.195 13.888 150.035 13.9328 149.856 13.92C149.69 13.9072 149.549 13.8432 149.434 13.728C149.165 13.408 148.826 13.1648 148.416 12.9984C148.019 12.8192 147.578 12.7296 147.091 12.7296C146.784 12.7296 146.483 12.7744 146.189 12.864C145.894 12.9536 145.645 13.1072 145.44 13.3248C145.248 13.5296 145.152 13.8176 145.152 14.1888C145.165 14.5344 145.28 14.816 145.498 15.0336C145.715 15.2512 146.01 15.4304 146.381 15.5712C146.752 15.6992 147.162 15.8272 147.61 15.9552C148.019 16.0576 148.41 16.1792 148.781 16.32C149.165 16.448 149.51 16.6208 149.818 16.8384C150.125 17.056 150.368 17.3376 150.547 17.6832C150.726 18.016 150.816 18.4384 150.816 18.9504C150.816 19.5392 150.65 20.0512 150.317 20.4864C149.984 20.9088 149.542 21.2352 148.992 21.4656C148.454 21.6832 147.872 21.792 147.245 21.792C146.541 21.792 145.843 21.6576 145.152 21.3888C144.474 21.12 143.885 20.6656 143.386 20.0256Z" fill="#324373"/>
<path d="M18.5454 7.63637C18.5454 7.03387 18.057 6.54546 17.4545 6.54546C16.852 6.54546 16.3636 7.03387 16.3636 7.63637V21.8181C16.3636 22.4206 16.852 22.9091 17.4545 22.9091C18.057 22.9091 18.5454 22.4206 18.5454 21.8181V7.63637Z" fill="#324373"/>
<path d="M7.59638 7.63637C7.59638 7.05597 7.12588 6.58546 6.54548 6.58546C5.96508 6.58546 5.49457 7.05597 5.49457 7.63637V21.8181C5.49457 22.3985 5.96508 22.8691 6.54548 22.8691C7.12588 22.8691 7.59638 22.3985 7.59638 21.8181V7.63637Z" stroke="#324373" stroke-width="0.1"/>
<path d="M24 13.0909C24 12.4884 23.5116 12 22.9091 12C22.3066 12 21.8182 12.4884 21.8182 13.0909V16.3636C21.8182 16.9661 22.3066 17.4545 22.9091 17.4545C23.5116 17.4545 24 16.9661 24 16.3636V13.0909Z" fill="#324373"/>
<path d="M2.14179 13.0909C2.14179 12.5105 1.67129 12.04 1.09089 12.04C0.510486 12.04 0.039978 12.5105 0.039978 13.0909V16.3636C0.039978 16.944 0.510486 17.4145 1.09089 17.4145C1.67129 17.4145 2.14179 16.944 2.14179 16.3636V13.0909Z" stroke="#324373" stroke-width="0.1"/>
<path d="M13.0509 1.09091C13.0509 0.51051 12.5804 0.0400009 12 0.0400009C11.4196 0.0400009 10.9491 0.51051 10.9491 1.09091V28.3636C10.9491 28.9441 11.4196 29.4146 12 29.4146C12.5804 29.4146 13.0509 28.9441 13.0509 28.3636V1.09091Z" stroke="#324373" stroke-width="0.1"/>
<path d="M10.9091 14.1818H13.0909V28.3637C13.0909 28.9662 12.6025 29.4546 12 29.4546C11.3975 29.4546 10.9091 28.9662 10.9091 28.3637V14.1818Z" fill="#324373"/>
</g>
<defs>
<clipPath id="clip0_6_11">
<rect width="152" height="29.6" fill="white"/>
</clipPath>
</defs>
</svg>
